<svg width="27" height="27" viewBox="0 0 27 27" fill="none"
    xmlns="http://www.w3.org/2000/svg">
    <path d="M26.5825 13.6519C26.5836 12.7521 26.5075 11.8538 26.3551 10.967H13.9028V16.0525H21.0349C20.889 16.8647 20.5801 17.6389 20.1268 18.3286C19.6736 19.0182 19.0854 19.6089 18.3977 20.0651V23.3661H22.6542C25.1465 21.0682 26.5825 17.67 26.5825 13.6519Z" fill="#4285F4"/>
    <path d="M13.9025 26.5552C17.4658 26.5552 20.4661 25.3852 22.6539 23.3679L18.3974 20.0668C17.2127 20.8701 15.6869 21.3285 13.9025 21.3285C10.4584 21.3285 7.53518 19.0068 6.48986 15.8782H2.10498V19.2801C3.20398 21.467 4.88918 23.3054 6.97243 24.59C9.05569 25.8747 11.455 26.5551 13.9025 26.5552Z" fill="#34A853"/>
    <path d="M6.4901 15.8795C5.93747 14.2401 5.93747 12.4647 6.4901 10.8252V7.42334H2.10523C1.18071 9.26303 0.699219 11.2934 0.699219 13.3524C0.699219 15.4113 1.18071 17.4417 2.10523 19.2814L6.4901 15.8795Z" fill="#FBBC04"/>
    <path d="M13.903 5.37399C15.786 5.34323 17.6055 6.05469 18.9683 7.35461L22.7369 3.58593C20.3472 1.34136 17.1813 0.10906 13.903 0.147351C11.4555 0.147462 9.05617 0.827831 6.97292 2.1125C4.88967 3.39717 3.20447 5.23557 2.10547 7.42247L6.49034 10.8244C7.53567 7.69572 10.4589 5.37399 13.903 5.37399Z" fill="#EA4335"/>
</svg>
